PathFileType	4	(X/Y/Z)	C:\Users\chris\Documents\GitHub\baseballds\vids\pitch5_Sports2D\pitch5_Sports2D_px_person02.trc
DataRate	CameraRate	NumFrames	NumMarkers	Units	OrigDataRate	OrigDataStartFrame	OrigNumFrames
30	30	13	22	m	30	130	149
Frame#	Time	Hip			RHip			RKnee			RAnkle			RBigToe			RSmallToe			RHeel			LHip			LKnee			LAnkle			LBigToe			LSmallToe			LHeel			Neck			Head			Nose			RShoulder			RElbow			RWrist			LShoulder			LElbow			LWrist		
		X1	Y1	Z1	X2	Y2	Z2	X3	Y3	Z3	X4	Y4	Z4	X5	Y5	Z5	X6	Y6	Z6	X7	Y7	Z7	X8	Y8	Z8	X9	Y9	Z9	X10	Y10	Z10	X11	Y11	Z11	X12	Y12	Z12	X13	Y13	Z13	X14	Y14	Z14	X15	Y15	Z15	X16	Y16	Z16	X17	Y17	Z17	X18	Y18	Z18	X19	Y19	Z19	X20	Y20	Z20	X21	Y21	Z21	X22	Y22	Z22
130	4.333333333333333	1629.8899241082393	493.2602364312322	0.0	1634.2303273497942	500.5399171736567	0.0	1629.363828799434	532.2873849048223	0.0	1617.8998254795788	553.930932572944	0.0	1619.6898527577941	564.4351662505239	0.0	1619.2944485815715	564.744819787459	0.0	1615.1937598863767	556.5245702624326	0.0	1623.253721538617	499.19683672111114	0.0	1626.4009942359357	525.7454410212694	0.0	1625.8100039711103	555.210436673992	0.0	1628.5838967842574	560.5595038721295	0.0	1627.63415514002	558.6120619228816	0.0	1624.2816661934335	559.0645042444831	0.0	1638.4290877804572	456.26902770789434	0.0	1639.3461549318483	448.07210285791984	0.0	1638.315273169598	448.35382879411384	0.0	1650.4271365708842	462.3018515410571	0.0	1657.9858170590587	480.8309610431563	0.0	1647.8114444150951	475.57420659574257	0.0	1623.3044493284197	459.9236634526052	0.0	1611.618036094618	470.0520783896693	0.0	1614.9009480127606	480.9529328113982	0.0
131	4.366666666666666	1632.6351527585432	492.55576792861206	0.0	1636.9871947537542	499.639669992491	0.0	1632.3136797276143	530.085637814474	0.0	1619.824113479876	548.543049400055	0.0	1621.8737712225563	560.0504099317957	0.0	1621.1642537980001	560.0517425113335	0.0	1617.3184031976957	549.8709256470449	0.0	1626.1303348035271	498.5116463540443	0.0	1628.5054625766722	527.1335116935032	0.0	1630.6007048401382	555.6273614818147	0.0	1634.6012551383615	559.7762277241968	0.0	1632.1057576623316	558.1630810815752	0.0	1628.2244726888412	559.8698940172724	0.0	1640.13067181327	455.5801250066836	0.0	1640.6432957897293	447.4597748843987	0.0	1639.5083264004898	447.4265371710429	0.0	1652.4100536135943	461.6393831113569	0.0	1661.283311600179	480.25612849470014	0.0	1648.7827834905465	475.2800384296746	0.0	1625.3634455742972	459.3835101798029	0.0	1614.8196030126185	471.04400642045533	0.0	1618.015686288736	481.5563830407484	0.0
132	4.4	1635.3533333192704	493.1762634103158	0.0	1640.0682649729467	499.15385567607774	0.0	1636.0073601020017	528.2909089219602	0.0	1623.4342195728063	541.5090356824991	0.0	1625.327121679198	553.2811770221533	0.0	1624.783686638705	553.2014956969709	0.0	1620.6431514025983	541.0086274061873	0.0	1628.5563253704886	497.89955659068704	0.0	1630.3102541396402	528.6519998433511	0.0	1634.0698367638126	556.288949970864	0.0	1638.8196193776853	560.4492331821606	0.0	1635.3816593513209	559.0466664518756	0.0	1631.3803960183982	560.5129718882005	0.0	1642.0074493096802	455.8833628106278	0.0	1642.391392521706	447.0751133668325	0.0	1641.4867030301662	447.76308288667974	0.0	1654.3018312864533	462.0265643207914	0.0	1664.1529639657733	481.0397567464569	0.0	1651.3135601670538	479.9073437133884	0.0	1627.8530116491563	459.9173223393357	0.0	1617.686893746658	472.76215276157944	0.0	1621.3458360123295	483.1739084624088	0.0
133	4.433333333333334	1637.7024333693603	494.50392481447	0.0	1643.163086860525	498.4285623609952	0.0	1639.9507332386372	527.6060350517222	0.0	1629.2702943517954	534.4325695973135	0.0	1630.053912664806	545.7811473346591	0.0	1630.938909502924	545.8280691529658	0.0	1625.644584375766	532.1459581154597	0.0	1630.4328482716114	496.96056076932786	0.0	1632.2135909299848	529.0724287649506	0.0	1635.8357583162247	556.4304273754324	0.0	1640.6205107238645	561.0879492873335	0.0	1637.5207229402747	559.4345412857092	0.0	1633.6329177920945	560.2333431139338	0.0	1643.911782053935	457.36524382932095	0.0	1644.5712614729002	446.19628405424737	0.0	1644.2796659482333	449.2597681362808	0.0	1655.9695790917153	463.2477880214923	0.0	1666.0593351204343	482.3879159849218	0.0	1655.0095828504454	486.41132467767375	0.0	1630.4702741650249	461.6243288653303	0.0	1619.9906932848198	475.6462242001337	0.0	1623.8873605091778	485.67038763354793	0.0
134	4.466666666666667	1639.7086444587346	496.30149824682854	0.0	1646.0564257578758	497.91978780310075	0.0	1644.1698875399363	528.3752358581869	0.0	1635.6079195208406	530.5804295498539	0.0	1635.7425230247009	540.157741701269	0.0	1638.2338503637966	540.4780023483238	0.0	1631.64637967416	526.872129962475	0.0	1632.1780807697965	496.49306236789795	0.0	1634.3063173461046	528.6857827818792	0.0	1636.1161577571925	554.7575298971383	0.0	1640.5566105093314	559.5232938631704	0.0	1638.6467694235	556.432018265585	0.0	1635.1136731455035	557.9546918750412	0.0	1645.6828486312054	459.85169870415086	0.0	1646.8662277669869	445.102557156994	0.0	1647.13654367353	451.3501813104924	0.0	1657.5736023003712	465.1545860383498	0.0	1667.007589787106	483.9128410405963	0.0	1658.9975946700054	492.5308086304153	0.0	1632.8361318843852	464.22634842350817	0.0	1621.9238764893414	479.47293980777386	0.0	1625.4114388385642	488.9523644157488	0.0
135	4.5	1641.8738352198166	499.0113674573505	0.0	1648.8617278871484	499.36093186480025	0.0	1649.0677967859738	530.4962223958324	0.0	1639.3709755861792	533.2410898589425	0.0	1641.2837774401166	538.0617906910045	0.0	1643.991450020072	538.5396872420552	0.0	1637.2372339079652	526.6149577820584	0.0	1634.248505754374	498.26438128903544	0.0	1636.1541441900877	529.2167684195479	0.0	1635.862363387227	552.6350423176301	0.0	1640.0381902324536	556.486231127571	0.0	1639.059474412446	551.5851977862557	0.0	1636.0344402908402	555.0355039728828	0.0	1647.2635623746921	462.402096507974	0.0	1648.9113352869801	444.77253743593013	0.0	1649.1333629031049	453.30542447478666	0.0	1659.2639472783253	467.38403676178865	0.0	1667.5822928341795	486.0118440909136	0.0	1662.6041561191369	497.3897657433167	0.0	1634.5808896200215	467.06356930151827	0.0	1623.9909868830246	483.28236999860394	0.0	1627.1267836045897	492.0051534821722	0.0
136	4.533333333333333	1644.5634870815993	502.4029230180046	0.0	1651.8425375905329	502.7727377408522	0.0	1654.1195997521163	532.6693714559839	0.0	1639.8291718830092	541.7921080925365	0.0	1645.4118927733302	539.3188966389843	0.0	1647.3870030551182	539.5707602487049	0.0	1641.989970986545	528.9894297437658	0.0	1636.724345082468	502.1270529114539	0.0	1637.3347286093117	531.2599412871119	0.0	1635.9289885433457	553.0683755293799	0.0	1640.110017788272	555.2358307268105	0.0	1638.8641816024087	550.2858275831665	0.0	1636.4211057321295	554.4970066852734	0.0	1648.9149026675955	463.80359334063417	0.0	1650.7308614290048	444.98527241326286	0.0	1650.4776522857956	454.4452459336478	0.0	1661.050534891869	469.0248696598834	0.0	1668.423425699464	488.371196369736	0.0	1665.8035829803114	500.0011832942092	0.0	1636.000641602271	469.0580304019088	0.0	1626.6546421680569	485.9460138888711	0.0	1630.3986593992045	492.9807009578551	0.0
137	4.566666666666666	1647.4493866758332	504.3974797695612	0.0	1654.8691192711392	505.0069389938842	0.0	1657.2277331895339	532.5667838361235	0.0	1640.0654166324211	549.5648423646306	0.0	1648.0776684419775	542.3789281718005	0.0	1649.6353528200082	542.0427070081344	0.0	1646.4345347838298	531.0404782066732	0.0	1639.3568495405334	504.86728616396823	0.0	1638.2011752482404	532.4945282084611	0.0	1636.4611317160154	555.9807220534535	0.0	1640.6975644138556	556.8955294651834	0.0	1638.1246783767624	553.9871711800203	0.0	1636.493123434228	556.8180087168427	0.0	1651.1278099153028	463.36409066897636	0.0	1652.7221061242449	444.49428310640593	0.0	1652.2658372299381	454.2169005519231	0.0	1662.9700262902184	468.91241047797416	0.0	1669.8394212577648	488.80427434975087	0.0	1668.6675472562997	497.10383339601447	0.0	1638.062492675324	468.8186074305926	0.0	1630.141151107807	486.0224609260461	0.0	1635.3571856619426	490.0623118954373	0.0
138	4.6	1649.9611807597598	502.9178430014224	0.0	1657.6482681915952	503.3615501513988	0.0	1657.73452300381	529.3532472633668	0.0	1643.9060754274974	549.0895181430218	0.0	1650.4742631286317	545.7035015166688	0.0	1652.1601145189761	544.6695096643712	0.0	1650.6363444643137	532.1785006619522	0.0	1641.8176664005255	503.82085409414276	0.0	1639.3151188096786	530.6877155509412	0.0	1637.210221298529	557.8943376466956	0.0	1641.264244410704	559.5987035937655	0.0	1637.0959047056324	558.9066569579609	0.0	1636.6573133903862	559.3702185467763	0.0	1653.982704533176	461.10398017960506	0.0	1655.2002137336524	442.7098725792121	0.0	1655.0921442413726	452.35268497690436	0.0	1665.0729384029664	466.6928770618906	0.0	1671.6384843322992	485.81329710921824	0.0	1670.6822408027579	487.2055443926995	0.0	1641.0531026448214	465.83301426242633	0.0	1634.5031262714372	482.72323054598075	0.0	1641.1595132234306	482.6356351700731	0.0
139	4.633333333333333	1651.966562034329	498.7106240175913	0.0	1660.1608662790848	499.1957530872317	0.0	1658.4317837551177	525.1214969706657	0.0	1651.2944288927101	541.9874573789521	0.0	1654.036924560559	548.655746411262	0.0	1655.9488092426488	547.2171666472182	0.0	1654.0486095579663	533.8420516180197	0.0	1643.9122600258524	500.1362676860744	0.0	1640.6640710552656	526.9817720052696	0.0	1637.9848864886148	556.4795736907608	0.0	1641.7137335519471	561.456872712284	0.0	1636.2818765336033	561.6484727912622	0.0	1637.0206018640727	559.6643821370373	0.0	1657.064061003135	457.74875634248247	0.0	1658.2163838932756	439.96987712676366	0.0	1658.5187500127236	449.19281397332685	0.0	1667.2771441343398	463.22535354933586	0.0	1673.279565338528	480.9834245804326	0.0	1671.7805192756027	475.9093452504485	0.0	1644.3532227893338	461.4591109329825	0.0	1639.2725735426834	477.36914561787967	0.0	1646.6904793551385	472.54191880518374	0.0
140	4.666666666666667	1653.6348779085051	494.61109959915785	0.0	1662.3578111303227	495.37932726476345	0.0	1661.439308619972	522.3125810193087	0.0	1658.533251092115	537.6873921695659	0.0	1659.4626648126105	551.0856449417149	0.0	1661.2272118027613	549.9663958680969	0.0	1656.7143207618267	537.8472150477742	0.0	1645.5144010728814	496.2897950510156	0.0	1642.0676692319369	523.6469854754408	0.0	1638.702223707554	552.5724006328873	0.0	1642.2731917393326	561.5514575310395	0.0	1636.0844797586587	561.5063436855359	0.0	1637.406014617507	557.099942917229	0.0	1659.9788199081436	454.2930460818304	0.0	1661.8100745886222	436.78440974264936	0.0	1662.0002274121675	445.6823048008442	0.0	1669.3054371946705	459.5794347322744	0.0	1674.4298264807862	476.57388985980424	0.0	1673.3263316818663	471.15136400853373	0.0	1647.4920968928768	457.44030980735363	0.0	1643.0858922567145	472.455961531242	0.0	1650.784349641072	464.7958413700475	0.0
141	4.7	1655.283988854436	492.27482209798467	0.0	1664.13332646413	492.4120526226047	0.0	1665.286535278804	521.2092808795383	0.0	1663.4706465659356	540.3211270822839	0.0	1665.959768285703	552.7399333277766	0.0	1666.9790920543178	552.5624185303392	0.0	1659.6030035921908	544.0175911210958	0.0	1646.9350954431666	492.79049479773346	0.0	1643.5798136980754	521.1561528512099	0.0	1639.4480194278276	548.1542471986247	0.0	1642.7482683017834	559.4433634014324	0.0	1636.3281298243658	558.9578737254554	0.0	1637.8806121862276	552.7698829773076	0.0	1662.7158892977548	451.28717791048626	0.0	1665.9812778156906	433.72571131764073	0.0	1665.7692699177103	442.8828965323537	0.0	1670.948664308802	456.33406797246926	0.0	1675.1732175434358	472.8512234715631	0.0	1676.416700715632	473.84260208630565	0.0	1650.6853082279422	454.35373482583725	0.0	1645.3092199909565	469.73954400281275	0.0	1654.043121506038	464.90975567552584	0.0
142	4.733333333333333	1657.6067265477989	491.1103384980612	0.0	1666.037516582277	489.6244712678189	0.0	1668.405161197082	520.5355806936506	0.0	1667.12222961515	545.433090399051	0.0	1671.7849876249143	553.5111264267844	0.0	1671.7000610646303	554.0851578679802	0.0	1663.2757711261625	549.7040780875894	0.0	1649.6428979429252	489.45652547043017	0.0	1645.230417292683	519.3896908912593	0.0	1640.4822515412461	544.9275983311605	0.0	1642.6071015946918	555.2620950652888	0.0	1636.7374380393724	554.7096335089902	0.0	1638.7418885459508	549.0742672200888	0.0	1665.7359075639697	448.98905815564115	0.0	1670.2715963905375	431.58660602209125	0.0	1670.1503839383347	441.3433169120022	0.0	1672.5666162937428	453.8686638718486	0.0	1675.8993332310129	469.34379482599974	0.0	1680.4269624978522	478.23225255057014	0.0	1654.6435565327774	452.4049367448939	0.0	1647.8107474702474	469.4127157570612	0.0	1660.8108228880417	472.318256751215	0.0
